<svg xmlns="http://www.w3.org/2000/svg" width="24" height="24" viewBox="0 0 24 24" fill="none">
  <g stroke="currentColor" stroke-width="2" stroke-linecap="round" stroke-linejoin="round">
    <path d="M3 3l18 18"></path>
    <path d="M10.58 10.58A3 3 0 0 0 9 12c0 1.66 1.34 3 3 3a3 3 0 0 0 1.42-.38"></path>
    <path d="M17.94 17.94C16.25 19.25 14.24 20 12 20 5 20 1 12 1 12a21.76 21.76 0 0 1 5.06-5.94"></path>
    <path d="M14.12 9.88A3 3 0 0 0 12 9c-1.66 0-3 1.34-3 3 0 .74.27 1.41.72 1.93"></path>
    <path d="M22.99 12s-1.27-2.26-3.41-4.24"></path>
  </g>
</svg>
