<svg xmlns="http://www.w3.org/2000/svg" width="24" height="24" viewBox="0 0 48 48">
  <!-- 파란색 G 몸통 -->
  <path fill="#4285F4" d="M24 9c3.58 0 6.82 1.23 9.36 3.64l-3.8 3.8C28.2 15.32 26.27 14.6 24 14.6c-5.1 0-9.23 4.14-9.23 9.24S18.9 33.07 24 33.07c4.63 0 7.97-2.64 8.6-6.17h-8.6v-5.17H39c.17.94.27 1.9.27 2.97 0 8.69-5.83 14.9-15.27 14.9C14.47 39.6 8 33.13 8 23.84S14.47 8.08 24 8.08z"></path>
  <!-- 색띠 포인트(간단화) -->
  <path fill="#34A853" d="M9.7 29.7a15.6 15.6 0 0 0 14.3 9.9c4.02 0 7.4-1.33 9.87-3.58l-4.7-3.65c-1.41 1.02-3.2 1.65-5.17 1.65-4.45 0-8.2-3-9.51-7.07z"></path>
  <path fill="#FBBC05" d="M14.62 20.96a8.9 8.9 0 0 1 0 6.08l-4.92 3.8A15.74 15.74 0 0 1 8 23.84c0-2.36.56-4.58 1.57-6.56z"></path>
  <path fill="#EA4335" d="M33.36 12.64 28.7 16.3a8.86 8.86 0 0 0-4.7-1.7c-3.9 0-7.22 2.42-8.6 5.87l-5.83-4.58A15.77 15.77 0 0 1 24 8.08c3.58 0 6.82 1.23 9.36 3.56z"></path>
</svg>
